name ./resultDataOpenSim/trcMotMarkerGrf/sub09/grf-01-07.mot
datacolumns 19
datarows 17
range 1.41600000 1.48000000
endheader

                time	     ground_force_vx	     ground_force_vy	     ground_force_vz	     ground_force_px	     ground_force_py	     ground_force_pz	   l_ground_force_vx	   l_ground_force_vy	   l_ground_force_vz	   l_ground_force_px	   l_ground_force_py	   l_ground_force_pz	     ground_torque_x	     ground_torque_y	     ground_torque_z	   l_ground_torque_x	   l_ground_torque_y	   l_ground_torque_z	
          1.41600000	        -34.47702001	        469.26054307	          0.37815148	          0.94293533	          0.00000000	          0.10783325	          0.00000000	          0.00000000	          0.00000000	          0.00000000	          0.00000000	          0.00000000	          0.00000000	          1.11569339	          0.00000000	          0.00000000	          0.00000000	          0.00000000	
          1.42000000	        -30.97783563	        462.65053898	          3.15741599	          0.94384715	          0.00000000	          0.10756811	          0.00000000	          0.00000000	          0.00000000	          0.00000000	          0.00000000	          0.00000000	          0.00000000	          1.29570525	          0.00000000	          0.00000000	          0.00000000	          0.00000000	
          1.42400000	        -29.68981356	        456.78219133	          3.61949943	          0.94490900	          0.00000000	          0.10740127	          0.00000000	          0.00000000	          0.00000000	          0.00000000	          0.00000000	          0.00000000	          0.00000000	          1.49625846	          0.00000000	          0.00000000	          0.00000000	          0.00000000	
          1.42800000	        -30.22502460	        451.51418365	          1.93855826	          0.94609316	          0.00000000	          0.10735557	          0.00000000	          0.00000000	          0.00000000	          0.00000000	          0.00000000	          0.00000000	          0.00000000	          1.69964506	          0.00000000	          0.00000000	          0.00000000	          0.00000000	
          1.43200000	        -31.74380245	        446.67674925	         -1.38127822	          0.94730221	          0.00000000	          0.10745119	          0.00000000	          0.00000000	          0.00000000	          0.00000000	          0.00000000	          0.00000000	          0.00000000	          1.87878424	          0.00000000	          0.00000000	          0.00000000	          0.00000000	
          1.43600000	        -33.20434342	        442.13484490	         -5.59206237	          0.94840014	          0.00000000	          0.10767776	          0.00000000	          0.00000000	          0.00000000	          0.00000000	          0.00000000	          0.00000000	          0.00000000	          2.00752541	          0.00000000	          0.00000000	          0.00000000	          0.00000000	
          1.44000000	        -33.66285728	        437.81881584	         -9.84691627	          0.94925877	          0.00000000	          0.10798714	          0.00000000	          0.00000000	          0.00000000	          0.00000000	          0.00000000	          0.00000000	          0.00000000	          2.06964315	          0.00000000	          0.00000000	          0.00000000	          0.00000000	
          1.44400000	        -32.53396687	        433.69799986	        -13.36812599	          0.94980422	          0.00000000	          0.10832262	          0.00000000	          0.00000000	          0.00000000	          0.00000000	          0.00000000	          0.00000000	          0.00000000	          2.06389713	          0.00000000	          0.00000000	          0.00000000	          0.00000000	
          1.44800000	        -29.72233439	        429.74819568	        -15.58630558	          0.95004580	          0.00000000	          0.10864198	          0.00000000	          0.00000000	          0.00000000	          0.00000000	          0.00000000	          0.00000000	          0.00000000	          2.00468309	          0.00000000	          0.00000000	          0.00000000	          0.00000000	
          1.45200000	        -25.60387815	        425.96446720	        -16.22572426	          0.95005403	          0.00000000	          0.10891680	          0.00000000	          0.00000000	          0.00000000	          0.00000000	          0.00000000	          0.00000000	          0.00000000	          1.91921804	          0.00000000	          0.00000000	          0.00000000	          0.00000000	
          1.45600000	        -20.89664135	        422.40238624	        -15.33074097	          0.94993063	          0.00000000	          0.10912658	          0.00000000	          0.00000000	          0.00000000	          0.00000000	          0.00000000	          0.00000000	          0.00000000	          1.84234056	          0.00000000	          0.00000000	          0.00000000	          0.00000000	
          1.46000000	        -16.46593604	        419.19827057	        -13.22722341	          0.94980754	          0.00000000	          0.10925609	          0.00000000	          0.00000000	          0.00000000	          0.00000000	          0.00000000	          0.00000000	          0.00000000	          1.80952004	          0.00000000	          0.00000000	          0.00000000	          0.00000000	
          1.46400000	        -13.09490341	        416.54309040	        -10.43419438	          0.94981860	          0.00000000	          0.10929293	          0.00000000	          0.00000000	          0.00000000	          0.00000000	          0.00000000	          0.00000000	          0.00000000	          1.84868224	          0.00000000	          0.00000000	          0.00000000	          0.00000000	
          1.46800000	        -11.26837308	        414.60820049	         -7.56127364	          0.95004184	          0.00000000	          0.10923685	          0.00000000	          0.00000000	          0.00000000	          0.00000000	          0.00000000	          0.00000000	          0.00000000	          1.97240995	          0.00000000	          0.00000000	          0.00000000	          0.00000000	
          1.47200000	        -11.03676339	        413.46559076	         -5.20840799	          0.95048122	          0.00000000	          0.10911851	          0.00000000	          0.00000000	          0.00000000	          0.00000000	          0.00000000	          0.00000000	          0.00000000	          2.17317430	          0.00000000	          0.00000000	          0.00000000	          0.00000000	
          1.47600000	        -12.00410492	        413.07982740	         -3.86581184	          0.95106768	          0.00000000	          0.10899335	          0.00000000	          0.00000000	          0.00000000	          0.00000000	          0.00000000	          0.00000000	          0.00000000	          2.42417296	          0.00000000	          0.00000000	          0.00000000	          0.00000000	
          1.48000000	        -13.44001805	        413.37690331	         -3.82554595	          0.95167611	          0.00000000	          0.10890954	          0.00000000	          0.00000000	          0.00000000	          0.00000000	          0.00000000	          0.00000000	          0.00000000	          2.68651908	          0.00000000	          0.00000000	          0.00000000	          0.00000000	
